<?xml version="1.0" encoding="iso-8859-1"?>
<!-- Generator: Adobe Illustrator 19.0.0, SVG Export Plug-In . SVG Version: 6.00 Build 0)  -->
<svg version="1.1" id="Layer_1" xmlns="http://www.w3.org/2000/svg" xmlns:xlink="http://www.w3.org/1999/xlink" x="0px" y="0px"
	 viewBox="0 0 512 512" style="enable-background:new 0 0 512 512;" xml:space="preserve">
<polygon style="fill:#80D0B5;" points="216.093,268.205 216.093,305.548 180.857,335.7 180.857,238.053 "/>
<path style="fill:#FDC656;" d="M488.233,216.089c1.803,1.803,2.799,4.194,2.799,6.752c0,2.548-0.996,4.948-2.799,6.752
	l-81.638,81.638c-3.732,3.732-9.792,3.732-13.514,0l-10.851-10.851c-3.051-3.051-7.506-3.827-11.281-2.327l-133.889,0.713v-25.801
	l77.214-16.177c0.377-0.073,0.744-0.178,1.101-0.294c1.94-0.398,3.785-1.342,5.294-2.852c4.089-4.089,4.089-10.725,0-14.824
	l-29.848-29.837l49.526-49.526c4.089-4.089,4.089-10.725,0-14.824c-4.099-4.089-10.735-4.089-14.824,0l-49.526,49.515
	l-10.044-10.044c-3.722-3.722-3.722-9.781,0-13.503l81.648-81.648c3.722-3.722,9.781-3.722,13.503,0l28.118,28.118
	c0,0,0,0.01,0.01,0.01c0,0,0,0,0,0.01l70.871,70.86c0,0.01,0,0.01,0.01,0.01c0,0,0,0,0,0.01L488.233,216.089z M367.941,131.862
	c4.089-4.089,4.089-10.725,0-14.824c-4.099-4.089-10.735-4.089-14.835,0l-4.812,4.823c-4.099,4.089-4.099,10.725,0,14.824
	c2.044,2.044,4.728,3.072,7.412,3.072s5.368-1.027,7.412-3.072L367.941,131.862z"/>
<path d="M503.057,201.255c5.766,5.766,8.943,13.43,8.943,21.586c0,8.146-3.177,15.81-8.943,21.576l-81.638,81.648
	c-5.766,5.766-13.43,8.932-21.586,8.932c-8.146,0-15.81-3.166-21.576-8.932l-7.045-7.045l-139.477,0.734l-45.133,38.633
	c-3.019,2.59-6.72,3.921-10.484,3.921c-2.296,0-4.613-0.503-6.814-1.51c-4.068-1.877-7.045-5.21-8.471-9.226h-9.656
	c-12.13,0-21.985,9.855-21.985,21.985v21.754c0,5.787-4.697,10.484-10.484,10.484s-10.484-4.697-10.484-10.484v-21.754
	c0-23.683,19.269-42.952,42.952-42.952h8.712v-33.15h-8.712c-41.967,0-76.102,34.135-76.102,76.102v15.38
	c0,5.787-4.686,10.484-10.484,10.484c-5.787,0-10.484-4.697-10.484-10.484v-15.38c0-53.52,43.55-97.07,97.07-97.07h8.712v-33.139
	h-8.712c-71.804,0-130.209,58.406-130.209,130.209v23.872c0,5.787-4.697,10.484-10.484,10.484S0,403.216,0,397.429v-23.872
	C0,290.2,67.82,222.38,151.177,222.38h9.593c1.394-4.11,4.403-7.517,8.534-9.415c5.808-2.673,12.434-1.761,17.298,2.401
	l43.885,37.564l61.708-12.937l-41.065-41.055c-5.766-5.766-8.943-13.43-8.943-21.586c0-8.146,3.177-15.82,8.943-21.576
	l81.638-81.648c11.91-11.899,31.263-11.899,43.162,0l20.716,20.706l2.107-2.107c7.276-7.276,17.068-11.176,27.457-11.008
	c10.295,0.189,20.014,4.34,27.384,11.71l30.162,30.162c15.317,15.317,15.631,39.923,0.702,54.841l-2.107,2.118L503.057,201.255z
	 M491.032,222.841c0-2.558-0.996-4.948-2.799-6.752l-28.118-28.118c0-0.01,0-0.01,0-0.01c-0.01,0-0.01,0-0.01-0.01l-70.871-70.86
	c0-0.01,0-0.01,0-0.01c-0.01,0-0.01-0.01-0.01-0.01l-28.118-28.118c-3.722-3.722-9.781-3.722-13.503,0L265.954,170.6
	c-3.722,3.722-3.722,9.781,0,13.503l10.044,10.044l49.526-49.515c4.089-4.089,10.725-4.089,14.824,0
	c4.089,4.099,4.089,10.735,0,14.824l-49.526,49.526l29.848,29.837c4.089,4.099,4.089,10.735,0,14.824
	c-1.51,1.51-3.355,2.453-5.294,2.852c-0.356,0.115-0.723,0.22-1.101,0.294l-77.214,16.177v25.801l133.889-0.713
	c3.774-1.499,8.23-0.723,11.281,2.327l10.851,10.851c3.722,3.732,9.781,3.732,13.514,0l81.638-81.638
	C490.036,227.789,491.032,225.388,491.032,222.841z M469.635,163.607c6.752-6.752,6.437-18.053-0.702-25.193l-30.162-30.152
	c-3.502-3.512-8.094-5.494-12.927-5.577c-4.686-0.063-9.048,1.646-12.266,4.865l-2.107,2.118l56.057,56.057L469.635,163.607z
	 M216.093,305.548v-37.344l-35.236-30.152V335.7L216.093,305.548z"/>
<path d="M367.941,117.038c4.089,4.099,4.089,10.735,0,14.824l-4.823,4.823c-2.044,2.044-4.728,3.072-7.412,3.072
	s-5.368-1.027-7.412-3.072c-4.099-4.099-4.099-10.735,0-14.824l4.812-4.823C357.206,112.949,363.842,112.949,367.941,117.038z"/>
<path d="M129.193,428.377v5.819c0,5.787-4.697,10.484-10.484,10.484s-10.484-4.697-10.484-10.484v-5.819
	c0-5.798,4.697-10.484,10.484-10.484S129.193,422.579,129.193,428.377z"/>
<path d="M75.075,422.003v9.006c0,5.787-4.686,10.484-10.484,10.484c-5.787,0-10.484-4.697-10.484-10.484v-9.006
	c0-5.798,4.697-10.484,10.484-10.484C70.389,411.519,75.075,416.205,75.075,422.003z"/>
<path d="M20.968,430.495v5.819c0,5.798-4.697,10.484-10.484,10.484S0,442.111,0,436.313v-5.819c0-5.787,4.697-10.484,10.484-10.484
	S20.968,424.707,20.968,430.495z"/>
<g>
</g>
<g>
</g>
<g>
</g>
<g>
</g>
<g>
</g>
<g>
</g>
<g>
</g>
<g>
</g>
<g>
</g>
<g>
</g>
<g>
</g>
<g>
</g>
<g>
</g>
<g>
</g>
<g>
</g>
</svg>
