<?xml version="1.0" encoding="iso-8859-1"?>
<!-- Generator: Adobe Illustrator 19.0.0, SVG Export Plug-In . SVG Version: 6.00 Build 0)  -->
<svg version="1.1" id="Layer_1" xmlns="http://www.w3.org/2000/svg" xmlns:xlink="http://www.w3.org/1999/xlink" x="0px" y="0px"
	 viewBox="0 0 512.001 512.001" style="enable-background:new 0 0 512.001 512.001;" xml:space="preserve">
<rect x="66.674" y="88.073" style="fill:#EFEFEF;" width="381.935" height="326.194"/>
<g>
	<rect x="25.383" y="55.041" style="fill:#A7A9AC;" width="41.29" height="359.226"/>
	<rect x="448.609" y="55.041" style="fill:#A7A9AC;" width="41.29" height="359.226"/>
	<rect x="115.097" y="188.13" style="fill:#A7A9AC;" width="113.548" height="61.935"/>
</g>
<path style="fill:#0EDDF0;" d="M189.419,414.27c0-19.054,10.323-19.054,10.323-38.109s-10.323-19.054-10.323-38.109
	c0-19.052,10.323-19.052,10.323-38.104c0-19.052-10.323-19.052-10.323-38.105c0-19.051,10.323-19.051,10.323-38.104h-51.613
	c0,19.051-10.323,19.051-10.323,38.104s10.323,19.052,10.323,38.105c0,19.052-10.323,19.052-10.323,38.104
	c0,19.054,10.323,19.054,10.323,38.109s-10.323,19.054-10.323,38.109H189.419z"/>
<rect x="282.839" y="188.13" style="fill:#A7A9AC;" width="113.548" height="61.935"/>
<path style="fill:#0EDDF0;" d="M357.161,414.27c0-19.054,10.323-19.054,10.323-38.109s-10.323-19.054-10.323-38.109
	c0-19.052,10.323-19.052,10.323-38.104c0-19.052-10.323-19.052-10.323-38.105c0-19.051,10.323-19.051,10.323-38.104h-51.613
	c0,19.051-10.323,19.051-10.323,38.104s10.323,19.052,10.323,38.105c0,19.052-10.323,19.052-10.323,38.104
	c0,19.054,10.323,19.054,10.323,38.109s-10.323,19.054-10.323,38.109H357.161z"/>
<g>
	<path style="fill:#231F20;" d="M10.323,414.019c7.78,0,11.155,1.701,15.823,4.056c5.537,2.792,12.428,6.267,25.119,6.267
		s19.582-3.475,25.119-6.267c4.669-2.354,8.043-4.056,15.825-4.056s11.156,1.701,15.826,4.056c5.537,2.792,12.428,6.267,25.12,6.267
		c12.692,0,19.583-3.475,25.12-6.266c4.67-2.355,8.044-4.057,15.827-4.057c7.781,0,11.155,1.701,15.825,4.056
		c5.537,2.792,12.429,6.267,25.12,6.267c12.691,0,19.581-3.475,25.118-6.267c4.669-2.354,8.043-4.056,15.822-4.056
		c7.781,0,11.155,1.701,15.826,4.056c5.537,2.792,12.428,6.267,25.12,6.267c12.693,0,19.584-3.475,25.121-6.267
		c4.67-2.354,8.044-4.056,15.826-4.056c7.782,0,11.157,1.701,15.827,4.057c5.537,2.791,12.429,6.266,25.121,6.266
		s19.584-3.475,25.121-6.266c4.67-2.355,8.044-4.057,15.827-4.057c7.783,0,11.159,1.701,15.829,4.057
		c5.538,2.791,12.43,6.266,25.123,6.266c12.694,0,19.586-3.475,25.124-6.266c4.67-2.355,8.045-4.057,15.829-4.057
		c5.7,0,10.323-4.622,10.323-10.323s-4.622-10.323-10.323-10.323c-0.5,0-0.974,0.014-1.455,0.025V55.045
		c0-5.7-4.622-10.323-10.323-10.323h-41.29c-5.7,0-10.323,4.622-10.323,10.323v22.71H76.996v-22.71
		c0-5.7-4.621-10.323-10.323-10.323h-41.29c-5.701,0-10.323,4.622-10.323,10.323v338.504c-1.486-0.113-3.059-0.177-4.738-0.177
		C4.621,393.372,0,397.995,0,403.695S4.621,414.019,10.323,414.019z M152.043,352.188c-2.358-4.352-3.914-7.227-3.914-14.137
		c0-6.909,1.558-9.784,3.914-14.134c2.855-5.269,6.408-11.827,6.408-23.97c0-12.143-3.553-18.7-6.408-23.97
		c-2.358-4.351-3.914-7.226-3.914-14.135c0-6.909,1.558-9.785,3.914-14.135c1.916-3.535,4.146-7.652,5.406-13.646h30.006
		c-0.557,1.239-1.215,2.453-1.951,3.811c-2.855,5.269-6.408,11.827-6.408,23.97c0,12.143,3.553,18.7,6.408,23.97
		c2.358,4.351,3.914,7.226,3.914,14.135c0,6.909-1.558,9.785-3.914,14.135c-2.855,5.269-6.408,11.827-6.408,23.969
		c0,12.143,3.553,18.701,6.407,23.972c2.358,4.352,3.915,7.227,3.915,14.138s-1.558,9.785-3.914,14.137
		c-0.642,1.185-1.317,2.45-1.981,3.814c-2.752-0.457-5.851-0.74-9.422-0.74c-9.525,0-15.782,1.957-20.653,4.114
		c2.495-4.866,5.003-11.121,5.003-21.325C158.452,364.017,154.899,357.459,152.043,352.188z M319.786,352.188
		c-2.358-4.352-3.915-7.227-3.915-14.137c0-6.909,1.558-9.784,3.914-14.134c2.855-5.269,6.408-11.827,6.408-23.97
		c0-12.143-3.553-18.7-6.408-23.97c-2.357-4.351-3.914-7.226-3.914-14.135c0-6.909,1.558-9.785,3.915-14.135
		c1.915-3.535,4.146-7.652,5.405-13.646h30.006c-0.556,1.239-1.215,2.453-1.951,3.811c-2.855,5.269-6.408,11.827-6.408,23.97
		c0,12.143,3.553,18.7,6.408,23.97c2.357,4.351,3.914,7.226,3.914,14.135c0,6.909-1.558,9.785-3.915,14.135
		c-2.854,5.269-6.407,11.827-6.407,23.969c0,12.143,3.552,18.701,6.407,23.972c2.358,4.352,3.915,7.227,3.915,14.138
		s-1.558,9.785-3.915,14.137c-0.758,1.399-1.564,2.894-2.34,4.557c-3.57-0.888-7.802-1.482-13.028-1.482
		c-6.635,0-11.676,0.954-15.776,2.259c2.159-4.603,4.092-10.516,4.092-19.47C326.194,364.017,322.642,357.459,319.786,352.188z
		 M367.484,213.417h-51.613c-5.7,0-10.323,4.622-10.323,10.323c0,6.909-1.558,9.784-3.914,14.134c-0.326,0.602-0.662,1.224-1,1.866
		h-7.473v-41.29h92.903v41.29h-10.892c1.501-4.068,2.634-9.143,2.634-16C377.806,218.038,373.184,213.417,367.484,213.417z
		 M199.742,213.417h-51.613c-5.701,0-10.323,4.622-10.323,10.323c0,6.909-1.558,9.784-3.914,14.134
		c-0.326,0.602-0.662,1.224-1,1.866h-7.473v-41.29h92.903v41.29H207.43c1.501-4.068,2.634-9.143,2.634-16
		C210.065,218.038,205.443,213.417,199.742,213.417z M458.932,65.367h20.645v332.785c-1.062,0.502-2.065,1.005-3.022,1.487
		c-4.67,2.355-8.046,4.057-15.83,4.057c-0.629,0-1.219-0.015-1.793-0.037V65.367z M438.286,98.399v22.114h-82.501
		c-5.7,0-10.323,4.622-10.323,10.323c0,5.7,4.622,10.323,10.323,10.323h82.501v255.44c-4.554-1.777-10.323-3.226-18.514-3.226
		c-12.692,0-19.584,3.475-25.121,6.266c-4.67,2.355-8.044,4.057-15.827,4.057c-3.717,0-6.425-0.391-8.753-1.054
		c0.406-0.806,0.849-1.627,1.325-2.508c2.855-5.27,6.407-11.828,6.407-23.972s-3.552-18.702-6.407-23.973
		c-2.358-4.352-3.915-7.227-3.915-14.137c0-6.909,1.558-9.784,3.914-14.134c2.855-5.269,6.408-11.827,6.408-23.97
		c0-12.143-3.553-18.7-6.408-23.97c-2.357-4.351-3.914-7.226-3.914-14.135c0-0.51,0.011-0.991,0.028-1.459h28.876
		c5.7,0,10.323-4.622,10.323-10.323v-61.935c0-5.7-4.622-10.323-10.323-10.323H282.839c-5.7,0-10.323,4.622-10.323,10.323v61.935
		c0,5.7,4.622,10.323,10.323,10.323h12.414c-0.011,0.482-0.027,0.958-0.027,1.459c0,12.143,3.553,18.7,6.408,23.97
		c2.357,4.351,3.914,7.226,3.914,14.135c0,6.909-1.558,9.785-3.915,14.135c-2.854,5.269-6.407,11.827-6.407,23.969
		c0,12.143,3.552,18.701,6.407,23.972c2.358,4.352,3.915,7.227,3.915,14.138s-1.558,9.785-3.915,14.137
		c-1.887,3.483-4.072,7.54-5.341,13.388c-7.322-0.093-10.648-1.759-15.186-4.047c-5.537-2.791-12.428-6.266-25.119-6.266
		c-12.691,0-19.581,3.475-25.118,6.267c-4.669,2.354-8.043,4.056-15.822,4.056c-5.607,0-8.925-0.887-12.089-2.261
		c0.225-0.423,0.457-0.854,0.7-1.302c2.855-5.27,6.408-11.828,6.408-23.972s-3.553-18.702-6.408-23.973
		c-2.358-4.352-3.914-7.227-3.914-14.137c0-6.909,1.558-9.784,3.914-14.134c2.855-5.269,6.408-11.827,6.408-23.97
		c0-12.143-3.553-18.7-6.408-23.97c-2.358-4.351-3.914-7.226-3.914-14.135c0-0.51,0.011-0.991,0.028-1.459h28.873
		c5.701,0,10.323-4.622,10.323-10.323v-61.935c0-5.7-4.621-10.323-10.323-10.323H115.097c-5.701,0-10.323,4.622-10.323,10.323
		v61.935c0,5.7,4.621,10.323,10.323,10.323h12.414c-0.011,0.482-0.027,0.958-0.027,1.459c0,12.143,3.553,18.7,6.408,23.97
		c2.358,4.351,3.914,7.226,3.914,14.135c0,6.909-1.558,9.785-3.914,14.135c-2.855,5.269-6.408,11.827-6.408,23.969
		c0,12.143,3.553,18.701,6.407,23.972c2.358,4.352,3.915,7.227,3.915,14.138s-1.558,9.785-3.914,14.137
		c-1.861,3.436-4.014,7.432-5.29,13.156c-4.769-0.545-7.63-1.979-11.272-3.814c-5.537-2.792-12.428-6.267-25.12-6.267
		c-6.33,0-11.217,0.865-15.212,2.078V141.159h180.645c5.7,0,10.323-4.622,10.323-10.323c0-5.7-4.622-10.323-10.323-10.323H76.997
		V98.399H438.286z M56.351,65.367v338.027c-1.48,0.195-3.146,0.301-5.086,0.301c-7.631,0-11.027-1.639-15.559-3.923V65.367H56.351z"
		/>
	<path style="fill:#231F20;" d="M501.677,436.311c-12.693,0-19.585,3.475-25.123,6.266c-4.67,2.355-8.046,4.057-15.83,4.057
		s-11.159-1.701-15.829-4.057c-5.538-2.791-12.43-6.266-25.123-6.266c-12.692,0-19.584,3.475-25.121,6.266
		c-4.67,2.355-8.044,4.057-15.827,4.057s-11.157-1.701-15.827-4.057c-5.537-2.791-12.429-6.266-25.121-6.266
		c-12.692,0-19.583,3.475-25.12,6.266c-4.67,2.355-8.044,4.057-15.827,4.057c-7.781,0-11.156-1.701-15.826-4.057
		c-5.537-2.791-12.428-6.266-25.119-6.266c-12.691,0-19.581,3.475-25.118,6.267c-4.669,2.354-8.043,4.056-15.822,4.056
		c-7.781,0-11.156-1.701-15.826-4.057c-5.537-2.791-12.428-6.266-25.119-6.266c-12.692,0-19.583,3.475-25.12,6.266
		c-4.67,2.355-8.044,4.057-15.827,4.057c-7.781,0-11.156-1.701-15.826-4.056c-5.537-2.792-12.428-6.267-25.12-6.267
		c-12.691,0-19.582,3.475-25.119,6.267c-4.669,2.354-8.043,4.056-15.825,4.056c-7.78,0-11.155-1.701-15.823-4.056
		c-5.537-2.792-12.428-6.267-25.119-6.267c-5.701,0-10.323,4.622-10.323,10.323s4.621,10.323,10.323,10.323
		c7.78,0,11.155,1.701,15.823,4.056c5.537,2.792,12.428,6.267,25.119,6.267s19.582-3.475,25.119-6.267
		c4.669-2.354,8.043-4.056,15.825-4.056s11.156,1.701,15.826,4.056c5.537,2.792,12.428,6.267,25.12,6.267
		c12.692,0,19.583-3.475,25.12-6.266c4.67-2.355,8.044-4.057,15.827-4.057c7.781,0,11.155,1.701,15.825,4.056
		c5.537,2.792,12.429,6.267,25.12,6.267c12.691,0,19.581-3.475,25.118-6.267c4.669-2.354,8.043-4.056,15.822-4.056
		c7.781,0,11.155,1.701,15.826,4.056c5.537,2.792,12.428,6.267,25.12,6.267c12.693,0,19.584-3.475,25.121-6.267
		c4.67-2.354,8.044-4.056,15.826-4.056c7.782,0,11.157,1.701,15.827,4.057c5.537,2.791,12.429,6.266,25.121,6.266
		s19.584-3.475,25.121-6.266c4.67-2.355,8.044-4.057,15.827-4.057c7.783,0,11.159,1.701,15.829,4.057
		c5.538,2.791,12.43,6.266,25.123,6.266c12.694,0,19.586-3.475,25.124-6.266c4.67-2.355,8.045-4.057,15.829-4.057
		c5.7,0,10.323-4.622,10.323-10.323S507.378,436.311,501.677,436.311z"/>
	<path style="fill:#231F20;" d="M304.172,141.159h3.097c5.7,0,10.323-4.622,10.323-10.323c0-5.7-4.622-10.323-10.323-10.323h-3.097
		c-5.7,0-10.323,4.622-10.323,10.323C293.85,136.536,298.472,141.159,304.172,141.159z"/>
</g>
<g>
</g>
<g>
</g>
<g>
</g>
<g>
</g>
<g>
</g>
<g>
</g>
<g>
</g>
<g>
</g>
<g>
</g>
<g>
</g>
<g>
</g>
<g>
</g>
<g>
</g>
<g>
</g>
<g>
</g>
</svg>
